<svg width="125" height="39" viewBox="0 0 125 39" fill="none" xmlns="http://www.w3.org/2000/svg">
<path d="M21.92 28.4C21.92 28.6133 21.7867 28.8933 21.52 29.24C21.28 29.56 20.9333 29.88 20.48 30.2C20.0533 30.52 19.5467 30.8 18.96 31.04C18.4 31.28 17.8 31.4 17.16 31.4C16.1733 31.4 15.3067 31.0933 14.56 30.48C13.8133 29.84 13.1333 28.9733 12.52 27.88C11.9333 26.7867 11.3867 25.4933 10.88 24C10.3733 22.48 9.85333 20.84 9.32 19.08L7.8 20.08L7.04 30.4C7.01333 30.6133 6.96 30.7733 6.88 30.88C6.8 30.96 6.64 31 6.4 31H4.2C2.68 31 1.6 30.7067 0.96 30.12C0.346667 29.5067 0.0400001 28.6133 0.0400001 27.44C0.0400001 27.0667 0.0533334 26.5067 0.08 25.76C0.133333 24.9867 0.2 24.0933 0.28 23.08C0.36 22.04 0.44 20.9067 0.52 19.68C0.626667 18.4533 0.733333 17.2 0.84 15.92C1.02667 13.36 1.17333 11.3333 1.28 9.84C1.41333 8.34667 1.50667 7.17333 1.56 6.32C1.61333 5.44 1.65333 4.8 1.68 4.4C1.70667 3.97333 1.72 3.57333 1.72 3.2C1.72 2.8 1.93333 2.6 2.36 2.6H4.56C5.41333 2.6 6.09333 2.69333 6.6 2.88C7.13333 3.04 7.54667 3.28 7.84 3.6C8.13333 3.92 8.33333 4.32 8.44 4.8C8.54667 5.25333 8.6 5.78667 8.6 6.4C8.6 7.01333 8.56 8.01333 8.48 9.4C8.42667 10.76 8.33333 12.2933 8.2 14C9.10667 12.88 10.1867 11.4933 11.44 9.84C12.72 8.18667 14.2667 6.14667 16.08 3.72C16.16 3.61333 16.2667 3.48 16.4 3.32C16.56 3.13333 16.72 2.96 16.88 2.8C17.0667 2.64 17.2533 2.50667 17.44 2.4C17.6533 2.26667 17.8533 2.2 18.04 2.2C18.3867 2.2 18.7867 2.38667 19.24 2.76C19.6933 3.10667 20.12 3.54667 20.52 4.08C20.92 4.58666 21.2533 5.12 21.52 5.68C21.8133 6.21333 21.96 6.66667 21.96 7.04C21.96 7.81333 21.2667 8.97333 19.88 10.52C18.4933 12.04 16.5067 13.8 13.92 15.8C14.3733 16.5733 14.8933 17.4133 15.48 18.32C16.0667 19.2 16.6533 20.1067 17.24 21.04C17.8267 21.9467 18.4 22.84 18.96 23.72C19.52 24.5733 20.0133 25.3467 20.44 26.04C20.8933 26.7067 21.2533 27.2533 21.52 27.68C21.7867 28.1067 21.92 28.3467 21.92 28.4ZM33.0988 31.4C31.9254 31.4 30.7521 31.2533 29.5788 30.96C28.4321 30.6667 27.3921 30.16 26.4588 29.44C25.5521 28.72 24.8054 27.76 24.2188 26.56C23.6321 25.36 23.3388 23.8533 23.3388 22.04C23.3388 21.3733 23.3921 20.5733 23.4988 19.64C23.6054 18.7067 23.8054 17.7467 24.0988 16.76C24.4188 15.7733 24.8454 14.8 25.3788 13.84C25.9388 12.8533 26.6588 11.9733 27.5388 11.2C28.4188 10.4267 29.4854 9.8 30.7388 9.32C31.9921 8.84 33.4854 8.6 35.2188 8.6C36.6054 8.6 37.7788 8.76 38.7388 9.08C39.6988 9.4 40.4721 9.84 41.0588 10.4C41.6454 10.9333 42.0721 11.56 42.3388 12.28C42.6054 13 42.7388 13.7733 42.7388 14.6C42.7388 15.8267 42.4854 16.8667 41.9788 17.72C41.4988 18.5733 40.8588 19.2933 40.0588 19.88C39.2854 20.44 38.4188 20.88 37.4588 21.2C36.4988 21.52 35.5521 21.7733 34.6188 21.96C33.6854 22.12 32.8188 22.2267 32.0188 22.28C31.2454 22.3067 30.6454 22.32 30.2188 22.32C30.2188 22.8267 30.2854 23.3333 30.4188 23.84C30.5788 24.32 30.8054 24.7467 31.0988 25.12C31.3921 25.4933 31.7788 25.8 32.2588 26.04C32.7388 26.28 33.3254 26.4 34.0188 26.4C34.7121 26.4 35.2454 26.2933 35.6188 26.08C36.0188 25.84 36.3388 25.5867 36.5788 25.32C36.8188 25.0267 37.0188 24.7733 37.1788 24.56C37.3654 24.32 37.6054 24.2 37.8988 24.2C38.0321 24.2 38.2588 24.24 38.5788 24.32C38.9254 24.3733 39.2721 24.5067 39.6188 24.72C39.9654 24.9333 40.2721 25.2267 40.5388 25.6C40.8054 25.9733 40.9388 26.4533 40.9388 27.04C40.9388 27.8133 40.6988 28.48 40.2188 29.04C39.7388 29.6 39.1121 30.0533 38.3388 30.4C37.5921 30.7467 36.7521 31 35.8188 31.16C34.8854 31.32 33.9788 31.4 33.0988 31.4ZM33.8588 13.92C33.2721 13.92 32.7654 14.0933 32.3388 14.44C31.9388 14.76 31.5921 15.1733 31.2988 15.68C31.0321 16.1867 30.8188 16.7467 30.6588 17.36C30.5254 17.9733 30.4188 18.56 30.3388 19.12C31.9921 19.0933 33.3254 18.8133 34.3388 18.28C35.3788 17.7467 35.8988 16.9867 35.8988 16C35.8988 15.4667 35.7254 14.9867 35.3788 14.56C35.0588 14.1333 34.5521 13.92 33.8588 13.92ZM54.3878 31.4C53.2145 31.4 52.0411 31.2533 50.8678 30.96C49.7211 30.6667 48.6811 30.16 47.7478 29.44C46.8411 28.72 46.0945 27.76 45.5078 26.56C44.9211 25.36 44.6278 23.8533 44.6278 22.04C44.6278 21.3733 44.6811 20.5733 44.7878 19.64C44.8945 18.7067 45.0945 17.7467 45.3878 16.76C45.7078 15.7733 46.1345 14.8 46.6678 13.84C47.2278 12.8533 47.9478 11.9733 48.8278 11.2C49.7078 10.4267 50.7745 9.8 52.0278 9.32C53.2811 8.84 54.7745 8.6 56.5078 8.6C57.8945 8.6 59.0678 8.76 60.0278 9.08C60.9878 9.4 61.7611 9.84 62.3478 10.4C62.9345 10.9333 63.3611 11.56 63.6278 12.28C63.8945 13 64.0278 13.7733 64.0278 14.6C64.0278 15.8267 63.7745 16.8667 63.2678 17.72C62.7878 18.5733 62.1478 19.2933 61.3478 19.88C60.5745 20.44 59.7078 20.88 58.7478 21.2C57.7878 21.52 56.8411 21.7733 55.9078 21.96C54.9745 22.12 54.1078 22.2267 53.3078 22.28C52.5345 22.3067 51.9345 22.32 51.5078 22.32C51.5078 22.8267 51.5745 23.3333 51.7078 23.84C51.8678 24.32 52.0945 24.7467 52.3878 25.12C52.6811 25.4933 53.0678 25.8 53.5478 26.04C54.0278 26.28 54.6145 26.4 55.3078 26.4C56.0011 26.4 56.5345 26.2933 56.9078 26.08C57.3078 25.84 57.6278 25.5867 57.8678 25.32C58.1078 25.0267 58.3078 24.7733 58.4678 24.56C58.6545 24.32 58.8945 24.2 59.1878 24.2C59.3211 24.2 59.5478 24.24 59.8678 24.32C60.2145 24.3733 60.5611 24.5067 60.9078 24.72C61.2545 24.9333 61.5611 25.2267 61.8278 25.6C62.0945 25.9733 62.2278 26.4533 62.2278 27.04C62.2278 27.8133 61.9878 28.48 61.5078 29.04C61.0278 29.6 60.4011 30.0533 59.6278 30.4C58.8811 30.7467 58.0411 31 57.1078 31.16C56.1745 31.32 55.2678 31.4 54.3878 31.4ZM55.1478 13.92C54.5611 13.92 54.0545 14.0933 53.6278 14.44C53.2278 14.76 52.8811 15.1733 52.5878 15.68C52.3211 16.1867 52.1078 16.7467 51.9478 17.36C51.8145 17.9733 51.7078 18.56 51.6278 19.12C53.2811 19.0933 54.6145 18.8133 55.6278 18.28C56.6678 17.7467 57.1878 16.9867 57.1878 16C57.1878 15.4667 57.0145 14.9867 56.6678 14.56C56.3478 14.1333 55.8411 13.92 55.1478 13.92ZM80.2769 8.6C82.7835 8.6 84.6635 9.37333 85.9169 10.92C87.1969 12.4667 87.8369 14.9067 87.8369 18.24C87.8369 20.32 87.5969 22.1733 87.1169 23.8C86.6369 25.4267 85.9702 26.8133 85.1169 27.96C84.2635 29.08 83.2635 29.9333 82.1169 30.52C80.9702 31.1067 79.7302 31.4 78.3969 31.4C76.9835 31.4 75.8769 31.0933 75.0769 30.48C74.2769 29.8667 73.6502 29 73.1969 27.88C73.1169 28.84 73.0502 29.5733 72.9969 30.08C72.9435 30.5867 72.9035 30.9867 72.8769 31.28C72.8502 31.6 72.8235 31.88 72.7969 32.12C72.7969 32.36 72.7702 32.68 72.7169 33.08C72.6902 33.48 72.6502 34.0267 72.5969 34.72C72.5435 35.4133 72.4635 36.3733 72.3569 37.6C72.3302 37.92 72.2635 38.1333 72.1569 38.24C72.0502 38.3467 71.8235 38.4 71.4769 38.4H70.0369C69.2102 38.4 68.5302 38.3067 67.9969 38.12C67.4902 37.96 67.0769 37.72 66.7569 37.4C66.4635 37.08 66.2502 36.68 66.1169 36.2C66.0102 35.7467 65.9569 35.2133 65.9569 34.6C65.9569 34.3333 65.9969 33.6133 66.0769 32.44C66.1569 31.2667 66.2502 29.8667 66.3569 28.24C66.4902 26.5867 66.6235 24.8133 66.7569 22.92C66.9169 21.0267 67.0635 19.2267 67.1969 17.52C67.3302 15.7867 67.4369 14.2533 67.5169 12.92C67.6235 11.5867 67.7035 10.6667 67.7569 10.16C67.7835 9.57333 67.8502 9.22666 67.9569 9.12C68.0369 9.04 68.2502 9 68.5969 9H70.1569C71.5969 9 72.6369 9.30667 73.2769 9.92C73.9435 10.5067 74.2769 11.2133 74.2769 12.04C74.8902 10.8133 75.6769 9.93333 76.6369 9.4C77.6235 8.86667 78.8369 8.6 80.2769 8.6ZM77.3569 13.92C75.9969 13.92 74.9969 14.5067 74.3569 15.68C73.7169 16.8533 73.3969 18.4533 73.3969 20.48C73.3969 21.1733 73.4369 21.8533 73.5169 22.52C73.6235 23.1867 73.7969 23.7867 74.0369 24.32C74.2769 24.8533 74.5969 25.28 74.9969 25.6C75.4235 25.92 75.9569 26.08 76.5969 26.08C77.7435 26.08 78.7035 25.52 79.4769 24.4C80.2502 23.28 80.6369 21.52 80.6369 19.12C80.6369 18.4533 80.5835 17.8133 80.4769 17.2C80.3969 16.56 80.2369 16 79.9969 15.52C79.7569 15.04 79.4235 14.6533 78.9969 14.36C78.5702 14.0667 78.0235 13.92 77.3569 13.92Z" fill="white"/>
<path d="M103.643 31C102.816 31 102.136 30.92 101.603 30.76C101.096 30.5733 100.683 30.32 100.363 30C100.069 29.68 99.8561 29.2933 99.7228 28.84C99.6161 28.36 99.5628 27.8133 99.5628 27.2C99.5628 26.8 99.5761 26.24 99.6028 25.52C99.6561 24.7733 99.7361 23.76 99.8428 22.48C99.9495 21.1733 100.069 19.5333 100.203 17.56C100.363 15.56 100.549 13.0933 100.763 10.16C100.789 9.57333 100.856 9.22666 100.963 9.12C101.043 9.04 101.256 9 101.603 9H103.163C103.989 9 104.656 9.08 105.163 9.24C105.696 9.4 106.109 9.64 106.403 9.96C106.723 10.28 106.936 10.6667 107.043 11.12C107.176 11.5733 107.243 12.08 107.243 12.64C107.243 13.04 107.216 13.64 107.163 14.44C107.109 15.24 107.029 16.3333 106.923 17.72C106.843 19.08 106.723 20.7867 106.563 22.84C106.403 24.8667 106.203 27.32 105.963 30.2C105.936 30.52 105.869 30.7333 105.763 30.84C105.656 30.9467 105.429 31 105.083 31H103.643ZM100.803 4.28C100.803 3.21333 101.189 2.37333 101.963 1.76C102.736 1.14667 103.776 0.84 105.083 0.84C106.229 0.84 107.056 1.08 107.563 1.56C108.096 2.01333 108.363 2.62666 108.363 3.4C108.363 4.38666 107.989 5.21333 107.243 5.88C106.523 6.52 105.456 6.84 104.043 6.84C101.883 6.84 100.803 5.98667 100.803 4.28ZM119.373 14.4C119.293 15.4133 119.199 16.4133 119.093 17.4C119.013 18.3867 118.933 19.32 118.853 20.2C118.773 21.08 118.706 21.8667 118.653 22.56C118.626 23.2533 118.613 23.7867 118.613 24.16C118.613 24.8533 118.693 25.32 118.853 25.56C119.013 25.7733 119.279 25.88 119.653 25.88C119.946 25.88 120.199 25.8267 120.413 25.72C120.626 25.6133 120.826 25.4933 121.013 25.36C121.199 25.2267 121.359 25.1067 121.493 25C121.653 24.8933 121.826 24.84 122.013 24.84C122.199 24.84 122.373 24.9467 122.533 25.16C122.693 25.3733 122.773 25.8667 122.773 26.64C122.773 28.1067 122.373 29.2667 121.573 30.12C120.773 30.9733 119.399 31.4 117.453 31.4C115.533 31.4 114.106 30.96 113.173 30.08C112.266 29.1733 111.813 27.8 111.813 25.96C111.813 25.56 111.826 25.0933 111.853 24.56C111.906 24 111.973 23.28 112.053 22.4C112.133 21.52 112.226 20.44 112.333 19.16C112.466 17.88 112.599 16.2933 112.733 14.4H110.613C110.399 14.4 110.266 14.36 110.213 14.28C110.186 14.1733 110.173 14.0267 110.173 13.84L110.293 11.8C110.319 11.4533 110.359 11.12 110.413 10.8C110.493 10.4533 110.626 10.1467 110.813 9.88C111.026 9.61333 111.319 9.4 111.693 9.24C112.066 9.08 112.559 9 113.173 9C113.359 8.52 113.573 7.94667 113.813 7.28C114.053 6.61333 114.293 5.97333 114.533 5.36C114.773 4.72 114.999 4.18667 115.213 3.76C115.453 3.33333 115.666 3.12 115.853 3.12H117.013C118.133 3.12 118.906 3.46667 119.333 4.16C119.759 4.85333 119.973 5.68 119.973 6.64C119.973 7.17333 119.933 7.96 119.853 9H124.053C124.479 9 124.693 9.18667 124.693 9.56L124.533 11.72C124.479 12.52 124.253 13.1733 123.853 13.68C123.479 14.16 122.693 14.4 121.493 14.4H119.373Z" fill="#FF6A3D"/>
</svg>
